<?xml version="1.0" encoding="iso-8859-1"?>
<!-- Uploaded to: SVG Repo, www.svgrepo.com, Generator: SVG Repo Mixer Tools -->
<svg version="1.1" id="Layer_1" xmlns="http://www.w3.org/2000/svg" xmlns:xlink="http://www.w3.org/1999/xlink" 
	 viewBox="0 0 511.882 511.882" xml:space="preserve">
<path style="fill:#656D78;" d="M437.228,447.897c0,0-11.295,63.985-181.287,63.985c-169.993,0-181.287-63.985-181.287-63.985V10.669
	C74.654,4.779,79.419,0,85.308,0h341.266c5.889,0,10.654,4.779,10.654,10.669L437.228,447.897L437.228,447.897z"/>
<rect x="117.301" y="42.662" style="fill:#A0D468;" width="277.28" height="106.64"/>
<g>
	<path style="fill:#434A54;" d="M205.093,97.407L205.093,97.407l-2.468-1.43l2.468-1.43l0,0l0,0
		c5.108-2.944,6.857-9.466,3.905-14.566c-2.937-5.101-9.467-6.843-14.559-3.897c-0.016,0-0.016,0-0.016,0l-2.468,1.429v-2.858
		c0-5.89-4.765-10.669-10.654-10.669s-10.669,4.779-10.669,10.669v2.858l-2.468-1.429c0,0,0,0-0.016,0
		c-5.093-2.953-11.623-1.203-14.559,3.897c-2.953,5.101-1.203,11.622,3.905,14.566l0,0l0,0l2.468,1.43l-2.468,1.43l0,0
		c-5.108,2.944-6.858,9.467-3.905,14.566c2.937,5.101,9.466,6.851,14.559,3.905l0,0l2.484-1.429v2.858
		c0,5.89,4.78,10.662,10.669,10.662s10.654-4.772,10.654-10.662v-2.858l2.484,1.429l0,0c5.092,2.945,11.622,1.195,14.559-3.905
		C211.951,106.874,210.201,100.351,205.093,97.407z"/>
	<path style="fill:#434A54;" d="M283.654,79.989c-2.953-5.101-9.467-6.851-14.574-3.905l0,0l-2.469,1.429v-2.858
		c0-5.89-4.781-10.661-10.67-10.661s-10.669,4.771-10.669,10.661v2.858l-2.468-1.429l0,0c-5.108-2.945-11.623-1.195-14.575,3.905
		c-2.937,5.101-1.188,11.622,3.905,14.566l0,0l0,0l2.484,1.43l-2.468,1.422c-0.016,0.008-0.016,0.008-0.016,0.008
		c-5.093,2.944-6.842,9.467-3.905,14.566c2.952,5.101,9.466,6.851,14.575,3.905l0,0l2.468-1.429v2.858
		c0,5.89,4.78,10.662,10.669,10.662c5.889,0,10.67-4.772,10.67-10.662v-2.858l2.469,1.429l0,0
		c5.107,2.945,11.621,1.195,14.574-3.905c2.936-5.1,1.188-11.622-3.906-14.566l-0.016-0.008l-2.467-1.422l2.482-1.43l0,0l0,0
		C284.841,91.611,286.589,85.089,283.654,79.989z"/>
	<path style="fill:#434A54;" d="M354.388,97.415v-0.008l-2.469-1.422l2.469-1.43l0,0l0,0c5.107-2.944,6.857-9.466,3.904-14.566
		c-2.938-5.101-9.467-6.851-14.559-3.905l0,0l-2.484,1.429v-2.858c0-5.89-4.764-10.661-10.654-10.661
		c-5.889,0-10.668,4.771-10.668,10.661v2.858l-2.469-1.429l0,0c-5.109-2.945-11.623-1.195-14.574,3.905
		c-2.953,5.101-1.203,11.622,3.904,14.566l0,0l0,0l2.469,1.43l-2.469,1.422v0.008c-5.107,2.944-6.857,9.467-3.904,14.566
		c2.951,5.101,9.465,6.851,14.574,3.905l0,0l2.469-1.429v2.858c0,5.89,4.779,10.662,10.668,10.662
		c5.891,0,10.654-4.772,10.654-10.662v-2.858l2.484,1.429l0,0c5.092,2.945,11.621,1.195,14.559-3.905
		C361.246,106.881,359.496,100.359,354.388,97.415z"/>
</g>
<g>
	<path style="fill:#F5F7FA;" d="M191.956,234.618c0,5.889-4.78,10.661-10.669,10.661h-42.646c-5.889,0-10.669-4.772-10.669-10.661
		v-42.654c0-5.897,4.78-10.67,10.669-10.67h42.646c5.889,0,10.669,4.772,10.669,10.67V234.618z"/>
	<path style="fill:#F5F7FA;" d="M287.933,234.618c0,5.889-4.779,10.661-10.668,10.661h-42.647c-5.889,0-10.669-4.772-10.669-10.661
		v-42.654c0-5.897,4.78-10.67,10.669-10.67h42.647c5.889,0,10.668,4.772,10.668,10.67V234.618z"/>
	<path style="fill:#F5F7FA;" d="M383.912,234.618c0,5.889-4.779,10.661-10.67,10.661h-42.646c-5.889,0-10.668-4.772-10.668-10.661
		v-42.654c0-5.897,4.779-10.67,10.668-10.67h42.646c5.891,0,10.67,4.772,10.67,10.67V234.618z"/>
	<path style="fill:#F5F7FA;" d="M191.956,330.595c0,5.89-4.78,10.669-10.669,10.669h-42.646c-5.889,0-10.669-4.779-10.669-10.669
		v-42.662c0-5.89,4.78-10.653,10.669-10.653h42.646c5.889,0,10.669,4.764,10.669,10.653V330.595z"/>
	<path style="fill:#F5F7FA;" d="M287.933,330.595c0,5.89-4.779,10.669-10.668,10.669h-42.647c-5.889,0-10.669-4.779-10.669-10.669
		v-42.662c0-5.89,4.78-10.653,10.669-10.653h42.647c5.889,0,10.668,4.764,10.668,10.653V330.595z"/>
	<path style="fill:#F5F7FA;" d="M383.912,330.595c0,5.89-4.779,10.669-10.67,10.669h-42.646c-5.889,0-10.668-4.779-10.668-10.669
		v-42.662c0-5.89,4.779-10.653,10.668-10.653h42.646c5.891,0,10.67,4.764,10.67,10.653V330.595z"/>
</g>
<path style="fill:#ED5564;" d="M191.956,426.574c0,5.889-4.78,10.669-10.669,10.669h-42.646c-5.889,0-10.669-4.78-10.669-10.669
	v-42.662c0-5.89,4.78-10.654,10.669-10.654h42.646c5.889,0,10.669,4.765,10.669,10.654V426.574z"/>
<path style="fill:#FFCE54;" d="M287.933,426.574c0,5.889-4.779,10.669-10.668,10.669h-42.647c-5.889,0-10.669-4.78-10.669-10.669
	v-42.662c0-5.89,4.78-10.654,10.669-10.654h42.647c5.889,0,10.668,4.765,10.668,10.654V426.574z"/>
<path style="fill:#A0D468;" d="M383.912,426.574c0,5.889-4.779,10.669-10.67,10.669h-42.646c-5.889,0-10.668-4.78-10.668-10.669
	v-42.662c0-5.89,4.779-10.654,10.668-10.654h42.646c5.891,0,10.67,4.765,10.67,10.654V426.574z"/>
</svg>