<?xml version="1.0" encoding="iso-8859-1"?>
<!-- Uploaded to: SVG Repo, www.svgrepo.com, Generator: SVG Repo Mixer Tools -->
<svg height="800px" width="800px" version="1.1" id="Layer_1" xmlns="http://www.w3.org/2000/svg" xmlns:xlink="http://www.w3.org/1999/xlink" 
	 viewBox="0 0 511.883 511.883" xml:space="preserve">
<path style="fill:#A0D468;" d="M138.64,437.228c0,5.89-4.765,10.67-10.67,10.67H63.985c-5.873,0-10.653-4.78-10.653-10.67V309.257
	c0-5.889,4.78-10.654,10.653-10.654h63.985c5.905,0,10.67,4.766,10.67,10.654L138.64,437.228L138.64,437.228z"/>
<path style="fill:#4FC2E9;" d="M245.288,437.228c0,5.89-4.78,10.67-10.67,10.67h-63.985c-5.889,0-10.669-4.78-10.669-10.67V138.639
	c0-5.89,4.78-10.669,10.669-10.669h63.985c5.89,0,10.67,4.779,10.67,10.669V437.228z"/>
<path style="fill:#48CFAD;" d="M351.92,437.228c0,5.89-4.765,10.67-10.654,10.67h-63.985c-5.89,0-10.67-4.78-10.67-10.67V245.271
	c0-5.89,4.78-10.653,10.67-10.653h63.984c5.89,0,10.654,4.764,10.654,10.653v191.956H351.92z"/>
<path style="fill:#5D9CEC;" d="M458.567,437.228c0,5.89-4.78,10.67-10.669,10.67h-63.986c-5.889,0-10.653-4.78-10.653-10.67V74.654
	c0-5.89,4.765-10.669,10.653-10.669h63.986c5.889,0,10.669,4.779,10.669,10.669V437.228z"/>
<path style="fill:#434A54;" d="M501.229,426.574H10.67c-5.89,0-10.67,4.764-10.67,10.653s4.78,10.67,10.67,10.67h490.56
	c5.89,0,10.653-4.78,10.653-10.67S507.119,426.574,501.229,426.574z"/>
</svg>