<!DOCTYPE svg PUBLIC "-//W3C//DTD SVG 1.1//EN" "http://www.w3.org/Graphics/SVG/1.1/DTD/svg11.dtd">
<!-- Uploaded to: SVG Repo, www.svgrepo.com, Transformed by: SVG Repo Mixer Tools -->
<svg height="800px" width="800px" version="1.1" id="Layer_1" xmlns="http://www.w3.org/2000/svg" xmlns:xlink="http://www.w3.org/1999/xlink" viewBox="0 0 511.885 511.885" xml:space="preserve" fill="#000000">
<g id="SVGRepo_bgCarrier" stroke-width="0"/>
<g id="SVGRepo_tracerCarrier" stroke-linecap="round" stroke-linejoin="round"/>
<g id="SVGRepo_iconCarrier"> <path style="fill:#434A54;" d="M61.362,202.853c-11.756,0-21.315-9.561-21.315-21.323c0-11.747,9.56-21.308,21.315-21.308 s21.315,9.561,21.315,21.308C82.677,193.293,73.117,202.853,61.362,202.853z"/> <path style="fill:#6eaf8e;" d="M61.362,170.876h383.6v-21.308h-383.6c-17.66,0-31.97,14.309-31.97,31.961v50.629h21.315v-20.479 c3.335,1.171,6.913,1.828,10.654,1.828c13.918,0,25.752-8.904,30.142-21.308H61.362c-5.874,0-10.654-4.78-10.654-10.669 C50.708,175.656,55.488,170.876,61.362,170.876z"/> <path style="fill:#d7c593;" d="M383.397,101.627c20.387,11.771,27.385,37.835,15.606,58.221L217.865,473.611 c-11.771,20.387-37.835,27.369-58.229,15.591l-86.16-49.739l-26.65-223.737l112.24-194.409 c11.771-20.386,37.835-27.369,58.229-15.598L383.397,101.627z"/> <path style="fill:#F5F7FA;" d="M470.003,164.253c16.652,16.637,16.652,43.631,0,60.283L213.835,480.704 c-16.645,16.652-43.639,16.652-60.283,0L42.71,369.87l3.171-113.045L274.094,28.612c16.637-16.645,43.631-16.645,60.283,0 L470.003,164.253z"/> <polygon style="fill:#434A54;" points="394.645,88.895 85.247,398.316 40.031,353.108 349.436,43.686 "/> <path style="fill:#6eaf8e;" d="M455.647,490.577c0,11.778-9.545,21.308-21.324,21.308H50.708c-11.771,0-21.315-9.529-21.315-21.308 v-277.07c0-11.779,9.545-21.308,21.315-21.308h383.615c11.779,0,21.324,9.529,21.324,21.308V490.577z"/> <path style="fill:#5f645e;" d="M327.77,426.637H466.3c5.89,0,10.653-4.764,10.653-10.653V288.107c0-5.89-4.764-10.653-10.653-10.653 H327.77c0,0-42.646,51.066-42.646,74.592S327.77,426.637,327.77,426.637z"/> <path style="fill:#d7c593;" d="M391.708,352.046c0,11.778-9.544,21.308-21.322,21.308c-11.764,0-21.309-9.529-21.309-21.308 s9.545-21.308,21.309-21.308C382.164,330.738,391.708,340.267,391.708,352.046z"/> </g>
</svg>